<mxfile host="app.diagrams.net" modified="2023-11-11T08:17:18.116Z" agent="Mozilla/5.0 (Windows NT 10.0; Win64; x64) AppleWebKit/537.36 (KHTML, like Gecko) Chrome/119.0.0.0 Safari/537.36 Edg/119.0.0.0" etag="EHv9o5UKtmnT3KpYbSDg" version="22.1.0" type="github">
  <diagram id="C5RBs43oDa-KdzZeNtuy" name="Page-1">
    <mxGraphModel dx="839" dy="527" grid="1" gridSize="10" guides="1" tooltips="1" connect="1" arrows="1" fold="1" page="1" pageScale="1" pageWidth="827" pageHeight="1169" math="0" shadow="0">
      <root>
        <mxCell id="WIyWlLk6GJQsqaUBKTNV-0" />
        <mxCell id="WIyWlLk6GJQsqaUBKTNV-1" parent="WIyWlLk6GJQsqaUBKTNV-0" />
        <mxCell id="I_E26UzWS_VHLFwQ0atA-13" style="edgeStyle=orthogonalEdgeStyle;rounded=0;orthogonalLoop=1;jettySize=auto;html=1;exitX=0.5;exitY=1;exitDx=0;exitDy=0;entryX=0.5;entryY=0;entryDx=0;entryDy=0;" parent="WIyWlLk6GJQsqaUBKTNV-1" source="WIyWlLk6GJQsqaUBKTNV-3" target="WIyWlLk6GJQsqaUBKTNV-6" edge="1">
          <mxGeometry relative="1" as="geometry" />
        </mxCell>
        <mxCell id="WIyWlLk6GJQsqaUBKTNV-3" value="tcpip_input" style="rounded=1;whiteSpace=wrap;html=1;fontSize=12;glass=0;strokeWidth=1;shadow=0;fillColor=#d5e8d4;strokeColor=#82b366;" parent="WIyWlLk6GJQsqaUBKTNV-1" vertex="1">
          <mxGeometry x="160" y="40" width="120" height="40" as="geometry" />
        </mxCell>
        <mxCell id="I_E26UzWS_VHLFwQ0atA-14" style="edgeStyle=orthogonalEdgeStyle;rounded=0;orthogonalLoop=1;jettySize=auto;html=1;exitX=0.5;exitY=1;exitDx=0;exitDy=0;entryX=0.5;entryY=0;entryDx=0;entryDy=0;" parent="WIyWlLk6GJQsqaUBKTNV-1" source="WIyWlLk6GJQsqaUBKTNV-6" target="I_E26UzWS_VHLFwQ0atA-8" edge="1">
          <mxGeometry relative="1" as="geometry" />
        </mxCell>
        <mxCell id="WIyWlLk6GJQsqaUBKTNV-6" value="if (inp-&amp;gt;flags &amp;amp; (NETIF_FLAG_ETHARP | NETIF_FLAG_ETHERNET))" style="rhombus;whiteSpace=wrap;html=1;shadow=0;fontFamily=Helvetica;fontSize=12;align=center;strokeWidth=1;spacing=6;spacingTop=-4;fillColor=#d5e8d4;strokeColor=#82b366;" parent="WIyWlLk6GJQsqaUBKTNV-1" vertex="1">
          <mxGeometry x="70" y="100" width="300" height="80" as="geometry" />
        </mxCell>
        <mxCell id="I_E26UzWS_VHLFwQ0atA-4" style="edgeStyle=orthogonalEdgeStyle;rounded=0;orthogonalLoop=1;jettySize=auto;html=1;exitX=1;exitY=0.5;exitDx=0;exitDy=0;entryX=0;entryY=0.5;entryDx=0;entryDy=0;" parent="WIyWlLk6GJQsqaUBKTNV-1" source="WIyWlLk6GJQsqaUBKTNV-7" target="I_E26UzWS_VHLFwQ0atA-3" edge="1">
          <mxGeometry relative="1" as="geometry" />
        </mxCell>
        <mxCell id="I_E26UzWS_VHLFwQ0atA-25" value="" style="edgeStyle=orthogonalEdgeStyle;rounded=0;orthogonalLoop=1;jettySize=auto;html=1;curved=1;" parent="WIyWlLk6GJQsqaUBKTNV-1" source="WIyWlLk6GJQsqaUBKTNV-7" target="I_E26UzWS_VHLFwQ0atA-1" edge="1">
          <mxGeometry relative="1" as="geometry" />
        </mxCell>
        <mxCell id="I_E26UzWS_VHLFwQ0atA-26" style="edgeStyle=orthogonalEdgeStyle;rounded=0;orthogonalLoop=1;jettySize=auto;html=1;exitX=0.75;exitY=1;exitDx=0;exitDy=0;entryX=1;entryY=0.5;entryDx=0;entryDy=0;curved=1;" parent="WIyWlLk6GJQsqaUBKTNV-1" source="WIyWlLk6GJQsqaUBKTNV-7" target="I_E26UzWS_VHLFwQ0atA-5" edge="1">
          <mxGeometry relative="1" as="geometry" />
        </mxCell>
        <mxCell id="WIyWlLk6GJQsqaUBKTNV-7" value="ethernet_input" style="rounded=1;whiteSpace=wrap;html=1;fontSize=12;glass=0;strokeWidth=1;shadow=0;arcSize=0;fillColor=#ffe6cc;strokeColor=#d79b00;" parent="WIyWlLk6GJQsqaUBKTNV-1" vertex="1">
          <mxGeometry x="309" y="210" width="120" height="30" as="geometry" />
        </mxCell>
        <mxCell id="I_E26UzWS_VHLFwQ0atA-22" style="edgeStyle=orthogonalEdgeStyle;rounded=0;orthogonalLoop=1;jettySize=auto;html=1;" parent="WIyWlLk6GJQsqaUBKTNV-1" source="WIyWlLk6GJQsqaUBKTNV-10" target="I_E26UzWS_VHLFwQ0atA-1" edge="1">
          <mxGeometry relative="1" as="geometry" />
        </mxCell>
        <mxCell id="I_E26UzWS_VHLFwQ0atA-24" style="edgeStyle=orthogonalEdgeStyle;rounded=0;orthogonalLoop=1;jettySize=auto;html=1;exitX=1;exitY=1;exitDx=0;exitDy=0;entryX=0;entryY=0.5;entryDx=0;entryDy=0;elbow=vertical;curved=1;" parent="WIyWlLk6GJQsqaUBKTNV-1" source="WIyWlLk6GJQsqaUBKTNV-10" target="I_E26UzWS_VHLFwQ0atA-5" edge="1">
          <mxGeometry relative="1" as="geometry" />
        </mxCell>
        <mxCell id="WIyWlLk6GJQsqaUBKTNV-10" value="ip_input" style="rhombus;whiteSpace=wrap;html=1;shadow=0;fontFamily=Helvetica;fontSize=12;align=center;strokeWidth=1;spacing=6;spacingTop=-4;fillColor=#ffe6cc;strokeColor=#d79b00;" parent="WIyWlLk6GJQsqaUBKTNV-1" vertex="1">
          <mxGeometry x="170" y="290" width="100" height="80" as="geometry" />
        </mxCell>
        <mxCell id="I_E26UzWS_VHLFwQ0atA-32" style="edgeStyle=orthogonalEdgeStyle;rounded=0;orthogonalLoop=1;jettySize=auto;html=1;entryX=1;entryY=0.5;entryDx=0;entryDy=0;curved=1;exitX=1;exitY=0.5;exitDx=0;exitDy=0;" parent="WIyWlLk6GJQsqaUBKTNV-1" source="I_E26UzWS_VHLFwQ0atA-1" target="I_E26UzWS_VHLFwQ0atA-28" edge="1">
          <mxGeometry relative="1" as="geometry" />
        </mxCell>
        <mxCell id="I_E26UzWS_VHLFwQ0atA-33" style="edgeStyle=orthogonalEdgeStyle;rounded=0;orthogonalLoop=1;jettySize=auto;html=1;exitX=1;exitY=0.5;exitDx=0;exitDy=0;entryX=1;entryY=0.5;entryDx=0;entryDy=0;curved=1;" parent="WIyWlLk6GJQsqaUBKTNV-1" source="I_E26UzWS_VHLFwQ0atA-1" target="I_E26UzWS_VHLFwQ0atA-29" edge="1">
          <mxGeometry relative="1" as="geometry" />
        </mxCell>
        <mxCell id="I_E26UzWS_VHLFwQ0atA-34" style="edgeStyle=orthogonalEdgeStyle;rounded=0;orthogonalLoop=1;jettySize=auto;html=1;exitX=1;exitY=0.5;exitDx=0;exitDy=0;entryX=1;entryY=0.5;entryDx=0;entryDy=0;curved=1;" parent="WIyWlLk6GJQsqaUBKTNV-1" source="I_E26UzWS_VHLFwQ0atA-1" target="I_E26UzWS_VHLFwQ0atA-31" edge="1">
          <mxGeometry relative="1" as="geometry" />
        </mxCell>
        <mxCell id="I_E26UzWS_VHLFwQ0atA-1" value="ip4_input" style="rounded=1;whiteSpace=wrap;html=1;" parent="WIyWlLk6GJQsqaUBKTNV-1" vertex="1">
          <mxGeometry x="324" y="315" width="90" height="30" as="geometry" />
        </mxCell>
        <mxCell id="I_E26UzWS_VHLFwQ0atA-3" value="etharp_input" style="rounded=1;whiteSpace=wrap;html=1;" parent="WIyWlLk6GJQsqaUBKTNV-1" vertex="1">
          <mxGeometry x="447" y="210" width="90" height="30" as="geometry" />
        </mxCell>
        <mxCell id="I_E26UzWS_VHLFwQ0atA-5" value="ip6_input" style="rounded=1;whiteSpace=wrap;html=1;" parent="WIyWlLk6GJQsqaUBKTNV-1" vertex="1">
          <mxGeometry x="324" y="370" width="90" height="30" as="geometry" />
        </mxCell>
        <mxCell id="I_E26UzWS_VHLFwQ0atA-15" style="edgeStyle=orthogonalEdgeStyle;rounded=0;orthogonalLoop=1;jettySize=auto;html=1;exitX=1;exitY=0.5;exitDx=0;exitDy=0;entryX=0;entryY=0.5;entryDx=0;entryDy=0;" parent="WIyWlLk6GJQsqaUBKTNV-1" source="I_E26UzWS_VHLFwQ0atA-8" target="WIyWlLk6GJQsqaUBKTNV-7" edge="1">
          <mxGeometry relative="1" as="geometry" />
        </mxCell>
        <mxCell id="I_E26UzWS_VHLFwQ0atA-16" style="edgeStyle=orthogonalEdgeStyle;rounded=0;orthogonalLoop=1;jettySize=auto;html=1;exitX=0.5;exitY=1;exitDx=0;exitDy=0;entryX=0.5;entryY=0;entryDx=0;entryDy=0;" parent="WIyWlLk6GJQsqaUBKTNV-1" source="I_E26UzWS_VHLFwQ0atA-8" target="WIyWlLk6GJQsqaUBKTNV-10" edge="1">
          <mxGeometry relative="1" as="geometry" />
        </mxCell>
        <mxCell id="I_E26UzWS_VHLFwQ0atA-8" value="tcpip_inpkt" style="rounded=1;whiteSpace=wrap;html=1;fillColor=#d5e8d4;strokeColor=#82b366;" parent="WIyWlLk6GJQsqaUBKTNV-1" vertex="1">
          <mxGeometry x="175" y="210" width="90" height="30" as="geometry" />
        </mxCell>
        <mxCell id="I_E26UzWS_VHLFwQ0atA-28" value="udp_input" style="rounded=0;whiteSpace=wrap;html=1;" parent="WIyWlLk6GJQsqaUBKTNV-1" vertex="1">
          <mxGeometry x="470" y="440" width="90" height="40" as="geometry" />
        </mxCell>
        <mxCell id="Y6cJ1kf8lucf0hTfPH2V-1" style="edgeStyle=orthogonalEdgeStyle;rounded=0;orthogonalLoop=1;jettySize=auto;html=1;curved=1;" edge="1" parent="WIyWlLk6GJQsqaUBKTNV-1" source="I_E26UzWS_VHLFwQ0atA-29" target="Y6cJ1kf8lucf0hTfPH2V-0">
          <mxGeometry relative="1" as="geometry" />
        </mxCell>
        <mxCell id="I_E26UzWS_VHLFwQ0atA-29" value="tcp_input" style="rounded=0;whiteSpace=wrap;html=1;" parent="WIyWlLk6GJQsqaUBKTNV-1" vertex="1">
          <mxGeometry x="470" y="490" width="90" height="40" as="geometry" />
        </mxCell>
        <mxCell id="I_E26UzWS_VHLFwQ0atA-31" value="icmp_input" style="rounded=0;whiteSpace=wrap;html=1;" parent="WIyWlLk6GJQsqaUBKTNV-1" vertex="1">
          <mxGeometry x="470" y="545" width="90" height="40" as="geometry" />
        </mxCell>
        <mxCell id="Y6cJ1kf8lucf0hTfPH2V-0" value="tcp_recv_callback" style="rounded=0;whiteSpace=wrap;html=1;" vertex="1" parent="WIyWlLk6GJQsqaUBKTNV-1">
          <mxGeometry x="304" y="495" width="110" height="30" as="geometry" />
        </mxCell>
        <mxCell id="Y6cJ1kf8lucf0hTfPH2V-2" value="tcp_write" style="rounded=0;whiteSpace=wrap;html=1;" vertex="1" parent="WIyWlLk6GJQsqaUBKTNV-1">
          <mxGeometry x="304" y="540" width="90" height="30" as="geometry" />
        </mxCell>
        <mxCell id="Y6cJ1kf8lucf0hTfPH2V-3" value="ip4_output_if" style="rounded=0;whiteSpace=wrap;html=1;" vertex="1" parent="WIyWlLk6GJQsqaUBKTNV-1">
          <mxGeometry x="289" y="600" width="120" height="60" as="geometry" />
        </mxCell>
        <mxCell id="Y6cJ1kf8lucf0hTfPH2V-5" value="netif-&amp;gt;output&lt;br&gt;etharp_output" style="rounded=0;whiteSpace=wrap;html=1;" vertex="1" parent="WIyWlLk6GJQsqaUBKTNV-1">
          <mxGeometry x="289" y="680" width="121" height="50" as="geometry" />
        </mxCell>
        <mxCell id="Y6cJ1kf8lucf0hTfPH2V-6" value="ethernet_output" style="rounded=0;whiteSpace=wrap;html=1;" vertex="1" parent="WIyWlLk6GJQsqaUBKTNV-1">
          <mxGeometry x="294" y="770" width="120" height="60" as="geometry" />
        </mxCell>
        <mxCell id="Y6cJ1kf8lucf0hTfPH2V-7" value="netif-&amp;gt;linkoutput&lt;br&gt;pcapif_low_level_output" style="rounded=0;whiteSpace=wrap;html=1;" vertex="1" parent="WIyWlLk6GJQsqaUBKTNV-1">
          <mxGeometry x="271" y="850" width="176" height="60" as="geometry" />
        </mxCell>
        <mxCell id="Y6cJ1kf8lucf0hTfPH2V-12" style="edgeStyle=orthogonalEdgeStyle;rounded=0;orthogonalLoop=1;jettySize=auto;html=1;exitX=0.5;exitY=1;exitDx=0;exitDy=0;entryX=0.5;entryY=0;entryDx=0;entryDy=0;" edge="1" parent="WIyWlLk6GJQsqaUBKTNV-1" source="Y6cJ1kf8lucf0hTfPH2V-9" target="Y6cJ1kf8lucf0hTfPH2V-10">
          <mxGeometry relative="1" as="geometry" />
        </mxCell>
        <mxCell id="Y6cJ1kf8lucf0hTfPH2V-9" value="tcpip_init(tcpip_init_done_fn initfunc, void *arg)" style="rounded=0;whiteSpace=wrap;html=1;" vertex="1" parent="WIyWlLk6GJQsqaUBKTNV-1">
          <mxGeometry x="547" width="280" height="30" as="geometry" />
        </mxCell>
        <mxCell id="Y6cJ1kf8lucf0hTfPH2V-16" style="edgeStyle=orthogonalEdgeStyle;rounded=0;orthogonalLoop=1;jettySize=auto;html=1;exitX=0.5;exitY=1;exitDx=0;exitDy=0;" edge="1" parent="WIyWlLk6GJQsqaUBKTNV-1" source="Y6cJ1kf8lucf0hTfPH2V-10" target="Y6cJ1kf8lucf0hTfPH2V-15">
          <mxGeometry relative="1" as="geometry" />
        </mxCell>
        <mxCell id="Y6cJ1kf8lucf0hTfPH2V-10" value="创建线程tcpip_thread" style="rounded=0;whiteSpace=wrap;html=1;" vertex="1" parent="WIyWlLk6GJQsqaUBKTNV-1">
          <mxGeometry x="625.5" y="50" width="123" height="20" as="geometry" />
        </mxCell>
        <mxCell id="Y6cJ1kf8lucf0hTfPH2V-19" style="edgeStyle=orthogonalEdgeStyle;rounded=0;orthogonalLoop=1;jettySize=auto;html=1;exitX=0.5;exitY=1;exitDx=0;exitDy=0;" edge="1" parent="WIyWlLk6GJQsqaUBKTNV-1" source="Y6cJ1kf8lucf0hTfPH2V-13" target="Y6cJ1kf8lucf0hTfPH2V-18">
          <mxGeometry relative="1" as="geometry" />
        </mxCell>
        <mxCell id="Y6cJ1kf8lucf0hTfPH2V-13" value="tcpip_timeouts_mbox_fetch" style="rounded=0;whiteSpace=wrap;html=1;" vertex="1" parent="WIyWlLk6GJQsqaUBKTNV-1">
          <mxGeometry x="607" y="130" width="160" height="20" as="geometry" />
        </mxCell>
        <mxCell id="Y6cJ1kf8lucf0hTfPH2V-17" style="edgeStyle=orthogonalEdgeStyle;rounded=0;orthogonalLoop=1;jettySize=auto;html=1;exitX=0.5;exitY=1;exitDx=0;exitDy=0;entryX=0.5;entryY=0;entryDx=0;entryDy=0;" edge="1" parent="WIyWlLk6GJQsqaUBKTNV-1" source="Y6cJ1kf8lucf0hTfPH2V-15" target="Y6cJ1kf8lucf0hTfPH2V-13">
          <mxGeometry relative="1" as="geometry" />
        </mxCell>
        <mxCell id="Y6cJ1kf8lucf0hTfPH2V-15" value="初始化完成回调initfunc(arg)" style="rounded=0;whiteSpace=wrap;html=1;" vertex="1" parent="WIyWlLk6GJQsqaUBKTNV-1">
          <mxGeometry x="605.5" y="90" width="163" height="20" as="geometry" />
        </mxCell>
        <mxCell id="Y6cJ1kf8lucf0hTfPH2V-20" style="edgeStyle=orthogonalEdgeStyle;rounded=0;orthogonalLoop=1;jettySize=auto;html=1;exitX=0.5;exitY=1;exitDx=0;exitDy=0;entryX=0;entryY=0.5;entryDx=0;entryDy=0;" edge="1" parent="WIyWlLk6GJQsqaUBKTNV-1" source="Y6cJ1kf8lucf0hTfPH2V-18" target="Y6cJ1kf8lucf0hTfPH2V-13">
          <mxGeometry relative="1" as="geometry" />
        </mxCell>
        <mxCell id="Y6cJ1kf8lucf0hTfPH2V-21" style="edgeStyle=orthogonalEdgeStyle;rounded=0;orthogonalLoop=1;jettySize=auto;html=1;exitX=0;exitY=0.5;exitDx=0;exitDy=0;entryX=0.5;entryY=0;entryDx=0;entryDy=0;curved=1;" edge="1" parent="WIyWlLk6GJQsqaUBKTNV-1" source="Y6cJ1kf8lucf0hTfPH2V-18" target="WIyWlLk6GJQsqaUBKTNV-7">
          <mxGeometry relative="1" as="geometry" />
        </mxCell>
        <mxCell id="Y6cJ1kf8lucf0hTfPH2V-23" style="edgeStyle=orthogonalEdgeStyle;rounded=0;orthogonalLoop=1;jettySize=auto;html=1;exitX=0;exitY=0.5;exitDx=0;exitDy=0;entryX=1;entryY=0;entryDx=0;entryDy=0;curved=1;" edge="1" parent="WIyWlLk6GJQsqaUBKTNV-1" source="Y6cJ1kf8lucf0hTfPH2V-18" target="WIyWlLk6GJQsqaUBKTNV-10">
          <mxGeometry relative="1" as="geometry">
            <Array as="points">
              <mxPoint x="611" y="170" />
              <mxPoint x="245" y="170" />
            </Array>
          </mxGeometry>
        </mxCell>
        <mxCell id="Y6cJ1kf8lucf0hTfPH2V-18" value="tcpip_thread_handle_msg" style="rounded=0;whiteSpace=wrap;html=1;" vertex="1" parent="WIyWlLk6GJQsqaUBKTNV-1">
          <mxGeometry x="610.5" y="170" width="153" height="20" as="geometry" />
        </mxCell>
      </root>
    </mxGraphModel>
  </diagram>
</mxfile>
